<svg width="24" height="24" viewBox="0 0 24 24" fill="none" xmlns="http://www.w3.org/2000/svg">
<path d="M11 10L14 13" stroke="#D3E97A" stroke-width="2" stroke-linecap="round" stroke-linejoin="round"/>
<path d="M6.50002 21C7.19225 21 7.86894 20.7947 8.44452 20.4101C9.02009 20.0256 9.46869 19.4789 9.7336 18.8394C9.9985 18.1999 10.0678 17.4961 9.93277 16.8172C9.79772 16.1383 9.46438 15.5146 8.97489 15.0251C8.48541 14.5356 7.86177 14.2023 7.18284 14.0673C6.5039 13.9322 5.80017 14.0015 5.16063 14.2664C4.52109 14.5313 3.97446 14.9799 3.58988 15.5555C3.20529 16.1311 3.00002 16.8078 3.00002 17.5C3.0002 18.1656 2.74707 18.8063 2.29202 19.292C2.15181 19.4319 2.05628 19.6102 2.01754 19.8044C1.97881 19.9986 1.99862 20.2 2.07445 20.3829C2.15029 20.5659 2.27873 20.7222 2.44351 20.832C2.60829 20.9419 2.80198 21.0004 3.00002 21H6.50002Z" stroke="#D3E97A" stroke-width="2" stroke-linecap="round" stroke-linejoin="round"/>
<path d="M9.96898 17.031L21.378 5.62398C21.7761 5.22589 21.9997 4.68596 21.9997 4.12298C21.9997 3.55999 21.7761 3.02007 21.378 2.62198C20.9799 2.22389 20.44 2.00024 19.877 2.00024C19.314 2.00024 18.7741 2.22389 18.376 2.62198L6.96698 14.031" stroke="#D3E97A" stroke-width="2" stroke-linecap="round" stroke-linejoin="round"/>
</svg>
